solid xMin 
facet normal -1.0 0.0 -0.0
outer loop
vertex -1.5 0.009999999776482582 1.5
vertex -1.5 3.0 1.5
vertex -1.5 0.009999999776482582 -1.5
endloop
endfacet
facet normal -1.0 0.0 0.0
outer loop
vertex -1.5 0.009999999776482582 -1.5
vertex -1.5 3.0 1.5
vertex -1.5 3.0 -1.5
endloop
endfacet
endsolid 
solid xMax 
facet normal 1.0 0.0 0.0
outer loop
vertex 1.5 3.0 -1.5
vertex 1.5 0.009999999776482582 1.5
vertex 1.5 0.009999999776482582 -1.5
endloop
endfacet
facet normal 1.0 0.0 0.0
outer loop
vertex 1.5 3.0 1.5
vertex 1.5 0.009999999776482582 1.5
vertex 1.5 3.0 -1.5
endloop
endfacet
endsolid 
solid yMin 
facet normal -0.0 -1.0 -0.0
outer loop
vertex -0.5 0.009999999776482582 0.5
vertex -1.5 0.009999999776482582 1.5
vertex -1.5 0.009999999776482582 -1.5
endloop
endfacet
facet normal 0.0 -1.0 0.0
outer loop
vertex -1.5 0.009999999776482582 -1.5
vertex 1.5 0.009999999776482582 -1.5
vertex 0.5 0.009999999776482582 -0.5
endloop
endfacet
facet normal 0.0 -1.0 0.0
outer loop
vertex -1.5 0.009999999776482582 -1.5
vertex 0.5 0.009999999776482582 -0.5
vertex -0.4950000047683716 0.009999999776482582 -0.5
endloop
endfacet
facet normal -0.0 -1.0 0.0
outer loop
vertex -0.5 0.009999999776482582 0.4950000047683716
vertex -0.5 0.009999999776482582 0.5
vertex -1.5 0.009999999776482582 -1.5
endloop
endfacet
facet normal 0.0 -1.0 0.0
outer loop
vertex -1.5 0.009999999776482582 -1.5
vertex -0.4950000047683716 0.009999999776482582 -0.5
vertex -0.5 0.009999999776482582 -0.5
endloop
endfacet
facet normal 0.0 -1.0 0.0
outer loop
vertex -1.5 0.009999999776482582 -1.5
vertex -0.5 0.009999999776482582 -0.5
vertex -0.5 0.009999999776482582 0.4950000047683716
endloop
endfacet
facet normal 0.0 -1.0 0.0
outer loop
vertex 0.5 0.009999999776482582 -0.5
vertex 1.5 0.009999999776482582 -1.5
vertex 1.5 0.009999999776482582 1.5
endloop
endfacet
facet normal -0.0 -1.0 -0.0
outer loop
vertex 1.5 0.009999999776482582 1.5
vertex -1.5 0.009999999776482582 1.5
vertex -0.5 0.009999999776482582 0.5
endloop
endfacet
facet normal 0.0 -1.0 -0.0
outer loop
vertex 1.5 0.009999999776482582 1.5
vertex -0.5 0.009999999776482582 0.5
vertex 0.4950000047683716 0.009999999776482582 0.5
endloop
endfacet
facet normal 0.0 -1.0 0.0
outer loop
vertex 0.5 0.009999999776482582 -0.4950000047683716
vertex 0.5 0.009999999776482582 -0.5
vertex 1.5 0.009999999776482582 1.5
endloop
endfacet
facet normal 0.0 -1.0 -0.0
outer loop
vertex 1.5 0.009999999776482582 1.5
vertex 0.4950000047683716 0.009999999776482582 0.5
vertex 0.5 0.009999999776482582 0.5
endloop
endfacet
facet normal 0.0 -1.0 -0.0
outer loop
vertex 1.5 0.009999999776482582 1.5
vertex 0.5 0.009999999776482582 0.5
vertex 0.5 0.009999999776482582 -0.4950000047683716
endloop
endfacet
endsolid 
solid yMax 
facet normal -0.0 1.0 0.0
outer loop
vertex -1.5 3.0 1.5
vertex 1.5 3.0 1.5
vertex -1.5 3.0 -1.5
endloop
endfacet
facet normal -0.0 1.0 0.0
outer loop
vertex -1.5 3.0 -1.5
vertex 1.5 3.0 1.5
vertex 1.5 3.0 -1.5
endloop
endfacet
endsolid 
solid zMin 
facet normal -0.0 -0.0 -1.0
outer loop
vertex -1.5 3.0 -1.5
vertex 1.5 0.009999999776482582 -1.5
vertex -1.5 0.009999999776482582 -1.5
endloop
endfacet
facet normal -0.0 -0.0 -1.0
outer loop
vertex 1.5 3.0 -1.5
vertex 1.5 0.009999999776482582 -1.5
vertex -1.5 3.0 -1.5
endloop
endfacet
endsolid 
solid zMax 
facet normal 0.0 -0.0 1.0
outer loop
vertex -1.5 0.009999999776482582 1.5
vertex 1.5 3.0 1.5
vertex -1.5 3.0 1.5
endloop
endfacet
facet normal 0.0 -0.0 1.0
outer loop
vertex 1.5 0.009999999776482582 1.5
vertex 1.5 3.0 1.5
vertex -1.5 0.009999999776482582 1.5
endloop
endfacet
endsolid 
solid object 
facet normal -1.0 0.0 -0.0
outer loop
vertex 0.5 0.009999999776482582 0.5
vertex 0.5 2.0 0.5
vertex 0.5 0.009999999776482582 -0.4950000047683716
endloop
endfacet
facet normal -1.0 0.0 0.0
outer loop
vertex 0.5 0.009999999776482582 -0.4950000047683716
vertex 0.5 2.0 0.5
vertex 0.5 2.0 -0.5
endloop
endfacet
facet normal -1.0 -0.0 -0.0
outer loop
vertex 0.5 0.009999999776482582 -0.4950000047683716
vertex 0.5 2.0 -0.5
vertex 0.5 0.009999999776482582 -0.5
endloop
endfacet
facet normal 0.0 0.0 -1.0
outer loop
vertex 0.4950000047683716 0.009999999776482582 0.5
vertex -0.5 0.009999999776482582 0.5
vertex -0.5 2.0 0.5
endloop
endfacet
facet normal 0.0 0.0 -1.0
outer loop
vertex -0.5 2.0 0.5
vertex 0.5 2.0 0.5
vertex 0.5 0.009999999776482582 0.5
endloop
endfacet
facet normal -0.0 -0.0 -1.0
outer loop
vertex -0.5 2.0 0.5
vertex 0.5 0.009999999776482582 0.5
vertex 0.4950000047683716 0.009999999776482582 0.5
endloop
endfacet
facet normal 1.0 -0.0 0.0
outer loop
vertex -0.5 0.009999999776482582 0.4950000047683716
vertex -0.5 0.009999999776482582 -0.5
vertex -0.5 2.0 -0.5
endloop
endfacet
facet normal 1.0 0.0 -0.0
outer loop
vertex -0.5 2.0 -0.5
vertex -0.5 2.0 0.5
vertex -0.5 0.009999999776482582 0.5
endloop
endfacet
facet normal 1.0 0.0 0.0
outer loop
vertex -0.5 2.0 -0.5
vertex -0.5 0.009999999776482582 0.5
vertex -0.5 0.009999999776482582 0.4950000047683716
endloop
endfacet
facet normal 0.0 -0.0 1.0
outer loop
vertex 0.5 0.009999999776482582 -0.5
vertex 0.5 2.0 -0.5
vertex -0.4950000047683716 0.009999999776482582 -0.5
endloop
endfacet
facet normal -0.0 0.0 1.0
outer loop
vertex -0.5 2.0 -0.5
vertex -0.5 0.009999999776482582 -0.5
vertex -0.4950000047683716 0.009999999776482582 -0.5
endloop
endfacet
facet normal -0.0 0.0 1.0
outer loop
vertex -0.5 2.0 -0.5
vertex -0.4950000047683716 0.009999999776482582 -0.5
vertex 0.5 2.0 -0.5
endloop
endfacet
facet normal 0.0 -1.0 0.0
outer loop
vertex -0.5 2.0 -0.5
vertex 0.5 2.0 -0.5
vertex -0.5 2.0 0.5
endloop
endfacet
facet normal 0.0 -1.0 0.0
outer loop
vertex 0.5 2.0 -0.5
vertex 0.5 2.0 0.5
vertex -0.5 2.0 0.5
endloop
endfacet
endsolid 
